<svg width="102" height="26" viewBox="0 0 102 26" fill="none" xmlns="http://www.w3.org/2000/svg">
<path d="M24.1055 26H0.0234375V0.792969H3.62695V22.3965H24.1055V26ZM31.1191 26H27.5156V0.792969H31.1191V26ZM40.7871 26H37.1836V0.792969H38.9766C40.1484 0.792969 41.3906 0.945313 42.7031 1.25C44.0273 1.55469 45.375 1.99414 46.7461 2.56836C48.1172 3.14258 49.4824 3.83984 50.8418 4.66016C52.2129 5.46875 53.5371 6.38867 54.8145 7.41992C56.0918 8.45117 57.293 9.57617 58.418 10.7949C59.543 12.002 60.5508 13.291 61.4414 14.6621V0.792969H65.0449V26H61.4414C61.4414 24.1484 61.1191 22.3672 60.4746 20.6562C59.8301 18.9336 58.9688 17.3105 57.8906 15.7871C56.8125 14.2637 55.5703 12.8633 54.1641 11.5859C52.7578 10.2969 51.2871 9.16602 49.752 8.19336C48.2285 7.2207 46.6934 6.42383 45.1465 5.80273C43.5996 5.16992 42.1465 4.74805 40.7871 4.53711V26ZM101.203 13.3965C101.203 15.1426 100.928 16.7832 100.377 18.3184C99.8262 19.8535 99.041 21.1895 98.0215 22.3262C97.0137 23.4629 95.8008 24.3594 94.3828 25.0156C92.9648 25.6719 91.3887 26 89.6543 26H81.2695C79.5234 26 77.9355 25.6719 76.5059 25.0156C75.0762 24.3594 73.8516 23.4629 72.832 22.3262C71.8242 21.1895 71.0449 19.8535 70.4941 18.3184C69.9434 16.7832 69.668 15.1426 69.668 13.3965C69.668 11.6621 69.9434 10.0332 70.4941 8.50977C71.0449 6.97461 71.8242 5.63867 72.832 4.50195C73.8516 3.35352 75.0762 2.45117 76.5059 1.79492C77.9355 1.12695 79.5234 0.792969 81.2695 0.792969H89.6543C91.3887 0.792969 92.9648 1.12695 94.3828 1.79492C95.8008 2.45117 97.0137 3.35352 98.0215 4.50195C99.041 5.63867 99.8262 6.97461 100.377 8.50977C100.928 10.0332 101.203 11.6621 101.203 13.3965ZM97.5996 13.3965C97.5996 12.1543 97.418 10.9883 97.0547 9.89844C96.6914 8.80859 96.1641 7.85938 95.4727 7.05078C94.793 6.23047 93.9609 5.58594 92.9766 5.11719C92.0039 4.63672 90.8965 4.39648 89.6543 4.39648H81.2695C80.0273 4.39648 78.9082 4.63672 77.9121 5.11719C76.9277 5.58594 76.0898 6.23047 75.3984 7.05078C74.7188 7.85938 74.1914 8.80859 73.8164 9.89844C73.4531 10.9883 73.2715 12.1543 73.2715 13.3965C73.2715 14.6387 73.4531 15.8105 73.8164 16.9121C74.1914 18.002 74.7188 18.957 75.3984 19.7773C76.0898 20.5859 76.9277 21.2246 77.9121 21.6934C78.9082 22.1621 80.0273 22.3965 81.2695 22.3965H89.6543C90.8965 22.3965 92.0039 22.1621 92.9766 21.6934C93.9609 21.2246 94.793 20.5859 95.4727 19.7773C96.1641 18.957 96.6914 18.002 97.0547 16.9121C97.418 15.8105 97.5996 14.6387 97.5996 13.3965Z" fill="black"/>
</svg>
