<svg width="42" height="42" viewBox="0 0 42 42" fill="none" xmlns="http://www.w3.org/2000/svg">
<rect width="42" height="42" fill="#FFF5D4"/>
<path d="M21.4542 19.9683C21.846 21.2664 20.7182 21.2664 20.7182 21.2664L26.0709 21.2664C25.9085 21.2664 24.2381 21.22 23.7973 20.0146L18.2991 5.04004H14.6568C14.0768 5.04004 13.3576 5.55001 13.0792 6.43087C12.8936 7.03356 12.94 7.68262 13.2416 8.37803C13.5664 9.16617 14.216 9.97748 15.1671 10.7888C15.5151 11.0901 15.8863 11.3683 16.2111 11.6465C17.8351 12.9446 18.8326 13.7791 19.227 15.819C19.5286 17.5575 18.6471 19.1106 17.3247 19.6206C16.7679 19.8292 16.1879 19.9451 15.6311 19.9451C13.8448 19.9451 12.128 18.9252 11.2464 17.1171L13.7752 10.6034C13.52 10.3716 13.1256 10.2556 12.708 10.2556C11.3392 10.2556 10.5041 11.2988 10.1793 12.5505C9.85447 13.8023 9.92407 15.4017 10.7128 17.1403L9.59928 20.0842C8.7177 21.2664 7.14014 21.2664 7.14014 21.2664H13.1024C13.1024 21.2664 10.8288 21.2664 10.2489 20.316C10.1793 20.2233 10.1561 20.1074 10.1561 19.9683L11.0144 17.6966C12.1744 19.6206 14.0536 20.4551 15.7703 20.4551C16.3967 20.4551 17.0231 20.3392 17.5799 20.1074C19.4126 19.3888 20.4566 17.6966 20.0854 16.1435L21.4542 19.9683ZM16.5359 11.2756C16.1879 10.9974 15.8399 10.7193 15.4919 10.4179C13.8912 9.05026 13.1952 7.68261 13.5432 6.59313C13.636 6.31497 13.7984 6.08316 13.9608 5.89772C14.2624 5.59637 14.6336 5.41093 15.0511 5.41093C15.7703 5.41093 16.4199 5.85136 16.6519 6.52359L19.4126 14.2195C18.7166 13.0373 17.6495 12.1796 16.5359 11.2756ZM10.9912 16.4448C10.6664 15.7494 10.5969 14.5904 10.8056 13.5705C11.0144 12.481 11.5016 12.0174 11.8728 12.0174C12.244 12.0174 12.4992 12.481 12.244 13.1996L10.9912 16.4448Z" fill="#191919"/>
<path d="M19.9858 21.1537C19.9858 21.1537 21.4016 21.1537 21.4016 22.6158V35.9139C21.4016 37.376 19.9858 37.376 19.9858 37.376H28.0397C28.0397 37.376 34.7473 37.7009 34.7473 32.5024C34.7473 30.9706 34.0974 29.9031 33.4243 29.114C32.4495 28.0232 31.4747 27.5823 30.6856 27.5823C29.6643 27.5823 28.9216 28.2553 28.8056 29.114C28.6199 30.5761 29.1537 33.1522 27.6915 33.5931C26.0204 34.0573 24.1636 30.0887 28.7127 27.8144C30.0125 27.1645 32.7977 26.2594 32.7977 24.2403C32.7977 21.1537 28.7592 21.1537 28.7592 21.1537H19.9858ZM31.0105 24.1475C31.0105 25.3311 30.7088 26.0738 28.4806 27.3502C26.1829 28.6498 25.4866 29.9727 25.2313 31.2491C24.9295 32.7576 25.8115 34.4518 27.413 34.1965C28.852 33.9877 29.0377 32.8737 29.1305 31.7829C29.2234 30.5065 29.1305 29.1372 29.9893 28.6731C30.175 28.5802 30.4535 28.4642 30.8016 28.4642C31.3587 28.4642 32.1014 28.7891 32.7745 30.0655C33.0994 30.6921 33.2851 31.5044 33.2387 32.4559C33.053 36.8654 28.4342 37.0047 28.0397 37.0047H23.7458V21.4322H27.6683C29.4555 21.4322 31.0105 22.8014 31.0105 24.1475Z" fill="#191919"/>
</svg>
