<svg width="245" height="287" viewBox="0 0 245 287" fill="none" xmlns="http://www.w3.org/2000/svg">
<path d="M127.029 132.48C130.507 144 120.498 144 120.498 144L168 144C166.559 144 151.735 143.589 147.824 132.891L99.0294 0H66.7059C61.5588 0 55.1765 4.52572 52.7059 12.3429C51.0588 17.6914 51.4706 23.4514 54.1471 29.6229C57.0294 36.6171 62.7941 43.8171 71.2353 51.0171C74.3235 53.6914 77.6177 56.16 80.5 58.6286C94.9118 70.1486 103.765 77.5543 107.265 95.6571C109.941 111.086 102.118 124.869 90.3824 129.394C85.4412 131.246 80.2941 132.274 75.3529 132.274C59.5 132.274 44.2647 123.223 36.4412 107.177L58.8824 49.3714C56.6176 47.3143 53.1176 46.2857 49.4118 46.2857C37.2647 46.2857 29.8529 55.5429 26.9706 66.6514C24.0882 77.76 24.7059 91.9543 31.7059 107.383L21.8235 133.509C14 144 0 144 0 144H52.9118C52.9118 144 32.7353 144 27.5882 135.566C26.9706 134.743 26.7647 133.714 26.7647 132.48L34.3824 112.32C44.6765 129.394 61.3529 136.8 76.5882 136.8C82.1471 136.8 87.7059 135.771 92.6471 133.714C108.912 127.337 118.176 112.32 114.882 98.5371L127.029 132.48ZM83.3824 55.3371C80.2941 52.8686 77.2059 50.4 74.1176 47.7257C59.9118 35.5886 53.7353 23.4514 56.8235 13.7829C57.6471 11.3143 59.0882 9.25715 60.5294 7.61143C63.2059 4.93714 66.5 3.29144 70.2059 3.29144C76.5882 3.29144 82.3529 7.2 84.4118 13.1657L108.912 81.4629C102.735 70.9714 93.2647 63.36 83.3824 55.3371ZM34.1765 101.211C31.2941 95.04 30.6765 84.7543 32.5294 75.7029C34.3824 66.0343 38.7059 61.92 42 61.92C45.2941 61.92 47.5588 66.0343 45.2941 72.4114L34.1765 101.211Z" fill="#689E7E"/>
<path d="M114 143C114 143 126.564 143 126.564 155.975V273.989C126.564 286.964 114 286.964 114 286.964H185.473C185.473 286.964 245 289.848 245 243.713C245 230.12 239.233 220.646 233.259 213.643C224.608 203.963 215.958 200.05 208.954 200.05C199.892 200.05 193.3 206.023 192.27 213.643C190.623 226.619 195.36 249.48 182.384 253.393C167.553 257.512 151.075 222.294 191.447 202.11C202.981 196.343 227.698 188.311 227.698 170.392C227.698 143 191.858 143 191.858 143H114ZM211.838 169.569C211.838 180.072 209.16 186.663 189.387 197.991C168.995 209.524 162.816 221.264 160.55 232.592C157.873 245.979 165.7 261.014 179.912 258.748C192.682 256.895 194.33 247.009 195.154 237.329C195.978 226.001 195.154 213.849 202.775 209.73C204.423 208.906 206.895 207.877 209.984 207.877C214.928 207.877 221.519 210.76 227.492 222.088C230.376 227.649 232.024 234.857 231.612 243.301C229.964 282.433 188.975 283.669 185.473 283.669H147.368V145.471H182.178C198.038 145.471 211.838 157.623 211.838 169.569Z" fill="#689E7E"/>
</svg>
