<svg width="60" height="60" viewBox="0 0 60 60" fill="none" xmlns="http://www.w3.org/2000/svg">
<mask id="mask0" mask-type="alpha" maskUnits="userSpaceOnUse" x="0" y="0" width="60" height="60">
<circle cx="30" cy="30" r="30" fill="#C4C4C4"/>
</mask>
<g mask="url(#mask0)">
<circle cx="30" cy="30" r="30" fill="#FFF5D4"/>
<path d="M32.0915 40.2929C32.6862 42.2535 30.9745 42.2535 30.9745 42.2535L39.0985 42.2535C38.8521 42.2535 36.3169 42.1835 35.6478 40.363L27.3028 17.7465H21.7746C20.8943 17.7465 19.8028 18.5167 19.3802 19.8471C19.0985 20.7573 19.169 21.7376 19.6267 22.7879C20.1197 23.9783 21.1056 25.2036 22.5492 26.429C23.0774 26.8841 23.6408 27.3042 24.1338 27.7243C26.5985 29.6849 28.1126 30.9453 28.7112 34.0261C29.169 36.6519 27.8309 38.9976 25.8239 39.7678C24.9788 40.0829 24.0985 40.2579 23.2535 40.2579C20.5422 40.2579 17.9366 38.7175 16.5985 35.9867L20.4366 26.1489C20.0492 25.7988 19.4507 25.6237 18.8169 25.6237C16.7394 25.6237 15.4718 27.1992 14.9788 29.0897C14.4859 30.9803 14.5915 33.396 15.7887 36.0217L14.0985 40.468C12.7605 42.2535 10.3661 42.2535 10.3661 42.2535H19.4154C19.4154 42.2535 15.9647 42.2535 15.0845 40.8181C14.9788 40.678 14.9436 40.503 14.9436 40.2929L16.2464 36.862C18.007 39.7678 20.8591 41.0282 23.4647 41.0282C24.4154 41.0282 25.3662 40.8531 26.2112 40.503C28.9929 39.4177 30.5774 36.862 30.014 34.5163L32.0915 40.2929ZM24.6267 27.1642C24.0985 26.744 23.5704 26.3239 23.0422 25.8688C20.6126 23.8032 19.5563 21.7376 20.0845 20.0921C20.2253 19.672 20.4718 19.3219 20.7183 19.0418C21.176 18.5867 21.7394 18.3066 22.3732 18.3066C23.4647 18.3066 24.4507 18.9718 24.8028 19.9871L28.9929 31.6104C27.9366 29.8249 26.3169 28.5296 24.6267 27.1642ZM16.2112 34.9714C15.7183 33.9211 15.6126 32.1706 15.9295 30.6302C16.2464 28.9847 16.9859 28.2845 17.5492 28.2845C18.1126 28.2845 18.5 28.9847 18.1126 30.07L16.2112 34.9714Z" fill="#0D0D0D"/>
<path d="M25.2817 17.7465C25.2817 17.7465 27.4701 17.7465 27.4701 19.9547V40.0392C27.4701 42.2474 25.2817 42.2474 25.2817 42.2474H37.7305C37.7305 42.2474 48.0986 42.7382 48.0986 34.8866C48.0986 32.5732 47.0941 30.9609 46.0537 29.7691C44.5469 28.1217 43.0401 27.4557 41.8203 27.4557C40.2418 27.4557 39.0938 28.4722 38.9144 29.7691C38.6274 31.9774 39.4526 35.8681 37.1924 36.5341C34.6093 37.2351 31.7393 31.2413 38.7709 27.8062C40.7799 26.8248 45.085 25.4578 45.085 22.4083C45.085 17.7465 38.8427 17.7465 38.8427 17.7465H25.2817ZM42.3226 22.2681C42.3226 24.0557 41.8562 25.1774 38.4122 27.1052C34.8605 29.0681 33.7842 31.066 33.3896 32.9939C32.9232 35.2722 34.2865 37.831 36.7619 37.4454C38.9862 37.1299 39.2732 35.4475 39.4167 33.8C39.5602 31.8722 39.4167 29.8042 40.7441 29.1031C41.0311 28.9629 41.4616 28.7877 41.9997 28.7877C42.8607 28.7877 44.0088 29.2784 45.0492 31.2062C45.5514 32.1526 45.8384 33.3794 45.7667 34.8165C45.4797 41.4763 38.3404 41.6866 37.7305 41.6866H31.0935V18.1671H37.1565C39.9189 18.1671 42.3226 20.2351 42.3226 22.2681Z" fill="#0D0D0D"/>
</g>
</svg>
